<?xml version="1.0" encoding="utf-8"?>
<!-- Generator: Adobe Illustrator 22.0.1, SVG Export Plug-In . SVG Version: 6.00 Build 0)  -->
<svg version="1.1" id="Capa_1" xmlns="http://www.w3.org/2000/svg" xmlns:xlink="http://www.w3.org/1999/xlink" x="0px" y="0px"
	 viewBox="182 372 50 50" style="enable-background:new 182 372 50 50;" xml:space="preserve">
<path  style="fill:white;" d="M211.7,384.5h-9.4c-4.3,0-7.8,3.5-7.8,7.8v9.4c0,4.3,3.5,7.8,7.8,7.8h9.4c4.3,0,7.8-3.5,7.8-7.8v-9.4
	C219.5,388,216,384.5,211.7,384.5z M217.2,401.7c0,3-2.5,5.5-5.5,5.5h-9.4c-3,0-5.5-2.5-5.5-5.5v-9.4c0-3,2.5-5.5,5.5-5.5h9.4
	c3,0,5.5,2.5,5.5,5.5V401.7z"/>
<path  style="fill:white;" d="M207,390.8c-3.5,0-6.3,2.8-6.3,6.3s2.8,6.3,6.3,6.3s6.3-2.8,6.3-6.3S210.5,390.8,207,390.8z M207,400.9
	c-2.2,0-3.9-1.8-3.9-3.9c0-2.2,1.8-3.9,3.9-3.9s3.9,1.8,3.9,3.9C210.9,399.2,209.2,400.9,207,400.9z"/>
<circle cx="213.7" cy="390.3" r="0.8"/>
</svg>
