<?xml version="1.0" encoding="utf-8"?>
<!-- Generator: Adobe Illustrator 22.0.1, SVG Export Plug-In . SVG Version: 6.00 Build 0)  -->
<svg version="1.1" id="Layer_1" xmlns="http://www.w3.org/2000/svg" xmlns:xlink="http://www.w3.org/1999/xlink" x="0px" y="0px"
	 viewBox="0 0 97 100" style="enable-background:new 0 0 97 100;" xml:space="preserve">
<style type="text/css">
	.st0{fill-rule:evenodd;clip-rule:evenodd;fill:#002655;}
	.st1{fill-rule:evenodd;clip-rule:evenodd;fill:#F9D81C;}
	.st2{fill:#F9D81C;}
</style>
<rect class="st0" width="97.2" height="97.2"/>
<rect y="97.2" class="st1" width="97.2" height="2.8"/>
<path class="st2" d="M67.6,82v-2.2l-0.3,0.1c-0.7,0.1-1.3,0.3-1.7,0.4c-0.5,0.2-0.8,0.3-1.1,0.5l0,0c-0.2,0.2-0.3,0.4-0.4,0.6
	c-0.1,0.2-0.1,0.5-0.1,0.7c0,0.5,0.1,0.8,0.4,1l0,0c0.2,0.1,0.3,0.2,0.5,0.3c0.2,0.1,0.4,0.1,0.7,0.1c0.2,0,0.4,0,0.6-0.1
	c0.2-0.1,0.4-0.2,0.6-0.3l0,0c0.2-0.1,0.3-0.2,0.4-0.4l0,0c0.1-0.1,0.2-0.3,0.3-0.4v0L67.6,82z M83.9,85.6h-4.4h-0.2v-0.2v-0.8v-0.2
	l0.2,0c0.3,0,0.5-0.1,0.5-0.4h0c0-0.1,0-0.2,0-0.2c0,0,0-0.1,0-0.1v-5.2c0-0.3,0-0.6-0.1-0.8c-0.1-0.2-0.1-0.4-0.3-0.6l0,0
	c-0.1-0.2-0.3-0.3-0.5-0.4v0c-1-0.4-1.9,0-2.6,0.7l-0.3,0.4v5.9v0.2c0,0.1,0,0.2,0,0.3v0c0,0.2,0.3,0.2,0.4,0.2l0,0l0,0l0.2,0l0.2,0
	v0.2v0.8v0.2h-0.2h-4.3h-0.2v-0.2v-0.8v-0.2l0.2,0c0.2,0,0.5,0,0.5-0.3c0-0.1,0-0.2,0-0.3v-0.2v-6.8c0-0.2,0-0.4,0-0.5
	c0-0.4-0.1-0.6-0.5-0.7l-0.2,0v-0.2v-0.8v-0.2h0.2h3.3h0.2v0.2v0.5c0.1-0.1,0.1-0.1,0.2-0.2c0.3-0.2,0.6-0.3,1-0.5l0,0
	c0.4-0.2,0.8-0.3,1.1-0.4c0.4-0.1,0.8-0.1,1.2-0.1c0.6,0,1.1,0.1,1.6,0.3c0.5,0.2,0.9,0.5,1.2,0.9l0,0c0.3,0.4,0.5,0.8,0.7,1.4
	c0.1,0.5,0.2,1.1,0.2,1.8v5.2c0,0.2,0,0.3,0,0.4v0c0,0.3,0.2,0.3,0.4,0.3l0,0l0.2,0l0.2,0v0.2v0.8v0.2H83.9z M59.1,85.6h-4.2h-0.2
	v-0.2v-0.8v-0.2l0.2,0c0.2,0,0.4-0.1,0.4-0.3c0,0,0-0.1,0-0.2c0-0.1,0-0.3,0-0.4v-5.1c0-0.3,0-0.6-0.1-0.8c-0.1-0.2-0.2-0.4-0.4-0.5
	c-0.1-0.1-0.3-0.2-0.5-0.3c-1.3-0.4-2,0.2-2.7,1.1v5.9c0,0.1,0,0.2,0,0.2c0,0.3,0.1,0.5,0.4,0.5l0,0l0.2,0l0.2,0v0.2v0.8v0.2h-0.2
	h-4.3h-0.2v-0.2v-0.8v-0.2l0.2,0c0.3-0.1,0.5,0,0.5-0.5l0,0c0,0,0-0.1,0-0.2c0-0.1,0-0.1,0-0.1l0,0v-5.2c0-0.3,0-0.6-0.1-0.8
	c-0.1-0.2-0.2-0.4-0.3-0.6l0,0c-0.1-0.2-0.3-0.3-0.5-0.4c-1.2-0.5-2.2,0.2-2.8,1.2v5.8v0.3c0,0.5,0.2,0.4,0.6,0.4l0.2,0v0.2v0.8v0.2
	h-0.2h-4.2h-0.2v-0.2v-0.8v-0.2l0.2,0c0.4-0.1,0.5,0,0.5-0.4v-0.3v-7c0-0.1,0-0.3,0-0.4v0c0-0.2,0-0.2-0.1-0.3
	c-0.2-0.1-0.4-0.2-0.7-0.1v-0.3v-0.8v-0.2h0.2h3.5h0.2v0.2v0.6c0.1-0.1,0.2-0.1,0.2-0.2c0.2-0.2,0.5-0.3,0.8-0.5l0,0
	c0.4-0.2,0.7-0.3,1.1-0.4c0.4-0.1,0.7-0.1,1.1-0.1c0.7,0,1.3,0.1,1.8,0.4c0.3,0.1,0.5,0.3,0.8,0.5c0.2,0.2,0.4,0.3,0.5,0.5
	c0.1-0.1,0.3-0.3,0.5-0.4c0.3-0.2,0.6-0.4,0.9-0.5l0,0c0.4-0.2,0.8-0.3,1.2-0.4c0.4-0.1,0.8-0.1,1.2-0.1c0.6,0,1.2,0.1,1.7,0.3
	c0.5,0.2,0.9,0.5,1.2,0.8h0c0.3,0.3,0.5,0.8,0.7,1.3c0.1,0.5,0.2,1.1,0.2,1.7v5.2v0.4c0,0.1,0,0.2,0,0.3v0c0,0.2,0.3,0.2,0.5,0.2
	l0,0l0.2,0l0.2,0v0.2v0.8v0.2H59.1z M39.6,85.6h-3.5h-0.2v-0.2v-0.7c-0.3,0.2-0.6,0.4-0.8,0.5c-0.3,0.2-0.5,0.3-0.8,0.4
	c-0.3,0.1-0.5,0.2-0.8,0.2c-0.3,0.1-0.6,0.1-0.9,0.1c-0.6,0-1.2-0.1-1.7-0.3c-0.5-0.2-0.9-0.5-1.3-0.8l0,0c-0.3-0.3-0.6-0.7-0.8-1.2
	c-0.2-0.4-0.3-0.9-0.3-1.4v-5.9h0c0-0.4,0-0.7-0.5-0.6l-0.3,0v-0.3v-0.8v-0.2h0.2h3.6h0.2v0.2v7.2c0,0.3,0,0.5,0.1,0.7
	c0.1,0.2,0.2,0.4,0.3,0.5c0.1,0.2,0.3,0.3,0.5,0.4c0.2,0.1,0.5,0.1,0.8,0.1c0.5,0,1-0.2,1.5-0.5h0c0.3-0.2,0.5-0.4,0.6-0.6
	c0.1-0.2,0.2-0.4,0.2-0.7v-5.3c0-0.1,0-0.2,0-0.2c0-0.4-0.3-0.5-0.6-0.4l-0.3,0v-0.3v-0.8v-0.2H35h3.8H39v0.2v8.9c0,0.1,0,0.2,0,0.2
	c0,0.5,0.2,0.5,0.6,0.5l0.2,0v0.2v0.8v0.2H39.6z M26.9,80.7c0,0.8-0.2,1.5-0.5,2.1c-0.3,0.6-0.8,1.2-1.5,1.7
	c-0.6,0.5-1.4,0.8-2.2,1.1c-0.9,0.2-1.8,0.4-2.9,0.4c-0.7,0-1.3-0.1-1.9-0.2c-0.6-0.1-1.2-0.4-1.7-0.7c-0.6-0.3-1.1-0.7-1.6-1.2
	c-0.5-0.5-0.9-1-1.2-1.6l0,0l-0.3-0.5l-0.1-0.2l0.2-0.1l3.1-2.2l0.2-0.1l0.1,0.2l0.7,0.7l0.1,0.2l-0.1,0.2l-0.2,0.3l0,0
	c-0.1,0.1-0.1,0.2-0.2,0.3v0c0,0.1-0.1,0.2-0.1,0.3c0,0.5,0.3,1,0.8,1.3h0c0.3,0.2,0.7,0.4,1.1,0.5c0.4,0.1,0.9,0.2,1.3,0.2
	c0.5,0,0.9,0,1.2-0.1c0.4-0.1,0.7-0.2,0.9-0.4l0,0c0.3-0.2,0.6-0.5,0.8-0.8c0.2-0.3,0.3-0.7,0.3-1.1c0-0.3-0.1-0.6-0.3-0.9
	c-0.2-0.3-0.5-0.5-0.9-0.7l0,0c-0.1-0.1-0.4-0.2-0.9-0.3c-0.4-0.1-1-0.3-1.7-0.4l0,0l-1-0.3c-0.7-0.2-1.4-0.4-1.9-0.6
	c-0.5-0.2-1-0.4-1.3-0.7v0c-0.5-0.4-0.9-0.8-1.1-1.3c-0.2-0.5-0.4-1.1-0.4-1.8c0-0.7,0.2-1.4,0.5-2c0.3-0.6,0.8-1.1,1.4-1.5l0,0
	c0.6-0.4,1.2-0.7,2-0.9c0.7-0.2,1.6-0.3,2.5-0.3c0.6,0,1.2,0.1,1.8,0.2c0.6,0.1,1.1,0.3,1.6,0.5c0.5,0.2,1,0.5,1.4,0.8
	c0.4,0.3,0.9,0.8,1.2,1.2l0.2,0.3l0.1,0.2l-0.2,0.2l-2.5,2.2L23.8,75l-0.2-0.1l-0.7-0.6l-0.1-0.1l0.1-0.2l0.1-0.4l0,0
	c0,0,0-0.1,0-0.1h0c0,0,0,0,0-0.1c0,0,0,0,0-0.1c0-0.2-0.1-0.4-0.2-0.5c-0.2-0.2-0.4-0.4-0.7-0.5c-0.3-0.2-0.7-0.3-1-0.4
	c-0.3-0.1-0.7-0.1-1-0.1c-0.4,0-0.8,0-1.1,0.1c-0.3,0.1-0.6,0.1-0.8,0.2v0c-0.3,0.1-0.5,0.3-0.7,0.5c-0.1,0.2-0.2,0.5-0.2,0.7
	c0,0.3,0.1,0.6,0.2,0.8c0.2,0.2,0.4,0.4,0.8,0.6v0c0.1,0.1,0.4,0.1,0.8,0.2c0.4,0.1,0.9,0.2,1.5,0.4l0,0l1.2,0.3l0,0
	c0.8,0.2,1.4,0.4,2,0.6c0.6,0.3,1.1,0.6,1.5,0.9c0.5,0.4,0.9,1,1.2,1.5C26.8,79.3,26.9,80,26.9,80.7z M71.3,85.6H68h-0.2v-0.2v-0.5
	c-0.4,0.3-0.9,0.6-1.4,0.8c-0.6,0.2-1.2,0.3-1.9,0.3c-0.6,0-1.1-0.1-1.6-0.2c-0.5-0.2-0.9-0.4-1.3-0.7h0c-0.4-0.3-0.7-0.8-0.9-1.2
	c-0.2-0.5-0.3-1-0.3-1.5c0-0.5,0.1-0.9,0.3-1.3c0.2-0.4,0.4-0.8,0.8-1.1c0.3-0.3,0.7-0.5,1.1-0.7c0.4-0.2,0.9-0.4,1.4-0.6l0,0
	c0.4-0.1,0.8-0.2,1.4-0.3c0.5-0.1,1.1-0.2,1.7-0.3h0l0.5-0.1v-0.1c0-0.2,0-0.4-0.1-0.5c-0.1-0.2-0.3-0.3-0.5-0.4
	c-0.2-0.1-0.5-0.2-0.8-0.3c-0.3-0.1-0.7-0.1-1.2-0.1c-0.2,0-0.4,0-0.6,0.1c-0.2,0-0.4,0.1-0.6,0.2l0,0c-0.2,0.1-0.4,0.2-0.5,0.3
	c-0.2,0.1-0.3,0.3-0.4,0.4l-0.2,0.2l-0.1,0.1h-0.1h-1h-0.2v-0.2V75v-0.2l0.2-0.1l0.4-0.1l0,0c0.3-0.1,0.7-0.2,1.1-0.3
	c0.4-0.1,0.7-0.1,1.1-0.2c0.4-0.1,0.7-0.1,1-0.1c0.3,0,0.6,0,0.9,0c1.6,0,2.8,0.3,3.7,1c0.8,0.7,1.3,1.6,1.3,3v6
	c0,0.3,0.2,0.5,0.5,0.4l0.3-0.1v0.3v0.8v0.2H71.3z"/>
</svg>
